<?xml version="1.0"?>
<svg version="1.1" xmlns="http://www.w3.org/2000/svg" xmlns:xlink="http://www.w3.org/1999/xlink" width="100" height="100">
    <desc iVinci="yes" version="4.6" gridStep="20" showGrid="yes" snapToGrid="no" codePlatform="0"/>
    <g id="Layer1" name="Layer 1" opacity="1">
        <g id="Shape1">
            <desc shapeID="1" type="0" basicInfo-basicType="0" basicInfo-roundedRectRadius="12" basicInfo-polygonSides="6" basicInfo-starPoints="5" bounding="rect(-28,-32,56,64)" text="" font-familyName="" font-pixelSize="20" font-bold="0" font-underline="0" font-alignment="1" strokeStyle="0" markerStart="0" markerEnd="0" shadowEnabled="0" shadowOffsetX="0" shadowOffsetY="2" shadowBlur="4" shadowOpacity="160" blurEnabled="0" blurRadius="4" transform="matrix(1,0,0,1,50,50)" pers-center="0,0" pers-size="0,0" pers-start="0,0" pers-end="0,0" locked="0" mesh="" flag=""/>
            <path d="M66,50 C72.6,50 78,44.6 78,38 C78,31.4 72.6,26 66,26 L63.9,26 C61.099,21.2 55.798,18 50,18 C44.199,18 38.9,21.2 36.2,26 L34,26 C27.4,26 22,31.4 22,38 C22,44.6 27.4,50 34,50 L34,60 C34,72.1 41.2,82 50,82 C58.799,82 66,72.1 66,60 L66,50 M34,34 C34,34.6 34.4,35 35,35 C35.6,35 36,34.6 36,34 C36,26.2 42.4,20 50,20 C57.6,20 64,26.2 64,34 C64,34.6 64.4,35 65,35 C65.6,35 66,34.6 66,34 C66,31.9 65.6,29.9 64.799,28 L66,28 C71.5,28 76,32.5 76,38 C76,43.5 71.5,48 66,48 C64.9,48 64,48.9 64,50 L64,52 L59,52 L59,47 C59,46.4 58.6,46 58,46 C57.4,46 57,46.4 57,47 L57,52 L51,52 L51,45 C51,44.4 50.6,44 50,44 C49.4,44 49,44.4 49,45 L49,52 L43,52 L43,47 C43,46.4 42.6,46 42,46 C41.4,46 41,46.4 41,47 L41,52 L36,52 L36,50 C36,48.9 35.1,48 34,48 C28.5,48 24,43.5 24,38 C24,32.5 28.5,28 34,28 L35.1,28 C34.4,29.9 34,31.9 34,34 M64,60 C64,71 57.699,80 50,80 C42.3,80 36,71 36,60 L64,60 M36,54 L64,54 L64,58 L36,58 L36,54 Z"/>
        </g>
    </g>
</svg>
