<?xml version="1.0"?>
<svg version="1.1" xmlns="http://www.w3.org/2000/svg" xmlns:xlink="http://www.w3.org/1999/xlink" width="581.102" height="581.103">
    <desc iVinci="yes" version="4.6" gridStep="20" showGrid="yes" snapToGrid="no" codePlatform="0"/>
    <g id="Layer1" name="Layer 2" opacity="1">
        <g id="Shape1">
            <desc shapeID="1" type="0" basicInfo-basicType="0" basicInfo-roundedRectRadius="12" basicInfo-polygonSides="6" basicInfo-starPoints="5" bounding="rect(-28,-32,56,64)" text="" font-familyName="" font-pixelSize="20" font-bold="0" font-underline="0" font-alignment="1" strokeStyle="0" markerStart="0" markerEnd="0" shadowEnabled="0" shadowOffsetX="0" shadowOffsetY="2" shadowBlur="4" shadowOpacity="160" blurEnabled="0" blurRadius="4" transform="matrix(5.33136,0,0,5.33136,290.5,290.5)" pers-center="0,0" pers-size="0,0" pers-start="0,0" pers-end="0,0" locked="0" mesh="" flag=""/>
            <path id="shapePath1" d="M375.802,290.5 C410.989,290.5 439.778,261.711 439.778,226.524 C439.778,191.337 410.989,162.547 375.802,162.547 L364.606,162.547 C349.673,136.957 321.411,119.897 290.5,119.897 C259.573,119.897 231.322,136.957 216.927,162.547 L205.198,162.547 C170.011,162.547 141.222,191.337 141.222,226.524 C141.222,261.711 170.011,290.5 205.198,290.5 L205.198,343.814 C205.198,408.323 243.584,461.103 290.5,461.103 C337.411,461.103 375.802,408.323 375.802,343.814 L375.802,290.5 M205.198,205.198 C205.198,208.397 207.331,210.53 210.53,210.53 C213.728,210.53 215.861,208.397 215.861,205.198 C215.861,163.614 249.982,130.559 290.5,130.559 C331.018,130.559 365.139,163.614 365.139,205.198 C365.139,208.397 367.272,210.53 370.47,210.53 C373.669,210.53 375.802,208.397 375.802,205.198 C375.802,194.002 373.669,183.34 369.399,173.21 L375.802,173.21 C405.124,173.21 429.115,197.201 429.115,226.524 C429.115,255.846 405.124,279.837 375.802,279.837 C369.937,279.837 365.139,284.636 365.139,290.5 L365.139,301.163 L338.482,301.163 L338.482,274.506 C338.482,271.307 336.35,269.175 333.151,269.175 C329.952,269.175 327.819,271.307 327.819,274.506 L327.819,301.163 L295.831,301.163 L295.831,263.843 C295.831,260.644 293.699,258.512 290.5,258.512 C287.301,258.512 285.169,260.644 285.169,263.843 L285.169,301.163 L253.181,301.163 L253.181,274.506 C253.181,271.307 251.048,269.175 247.849,269.175 C244.65,269.175 242.518,271.307 242.518,274.506 L242.518,301.163 L215.861,301.163 L215.861,290.5 C215.861,284.636 211.063,279.837 205.198,279.837 C175.876,279.837 151.885,255.846 151.885,226.524 C151.885,197.201 175.876,173.21 205.198,173.21 L211.063,173.21 C207.331,183.34 205.198,194.002 205.198,205.198 M365.139,343.814 C365.139,402.458 331.546,450.441 290.5,450.441 C249.449,450.441 215.861,402.458 215.861,343.814 L365.139,343.814 M215.861,311.825 L365.139,311.825 L365.139,333.151 L215.861,333.151 L215.861,311.825 Z" style="stroke:none;fill-rule:nonzero;fill:#000000;fill-opacity:1;"/>
        </g>
    </g>
</svg>

