<svg xmlns="http://www.w3.org/2000/svg" xmlns:xlink="http://www.w3.org/1999/xlink" version="1.0" id="Layer_1" x="0px" y="0px" width="100px" height="100px" viewBox="5.0 -10.0 100.0 135.0" enable-background="new 0 0 100 100" xml:space="preserve">
<path d="M66,50c6.6,0,12-5.4,12-12s-5.4-12-12-12h-2.1c-2.801-4.8-8.102-8-13.9-8c-5.801,0-11.1,3.2-13.8,8H34c-6.6,0-12,5.4-12,12  s5.4,12,12,12v10c0,12.1,7.2,22,16,22c8.799,0,16-9.9,16-22V50z M34,34c0,0.6,0.4,1,1,1s1-0.4,1-1c0-7.8,6.4-14,14-14s14,6.2,14,14  c0,0.6,0.4,1,1,1s1-0.4,1-1c0-2.1-0.4-4.1-1.201-6H66c5.5,0,10,4.5,10,10s-4.5,10-10,10c-1.1,0-2,0.9-2,2v2h-5v-5c0-0.6-0.4-1-1-1  s-1,0.4-1,1v5h-6v-7c0-0.6-0.4-1-1-1s-1,0.4-1,1v7h-6v-5c0-0.6-0.4-1-1-1s-1,0.4-1,1v5h-5v-2c0-1.1-0.9-2-2-2c-5.5,0-10-4.5-10-10  s4.5-10,10-10h1.1C34.4,29.9,34,31.9,34,34L34,34z M64,60c0,11-6.301,20-14,20c-7.7,0-14-9-14-20H64z M36,54h28v4H36V54z"/>
</svg>